<svg xmlns="http://www.w3.org/2000/svg" baseProfile="full" version="1.1" width="330px" height="330px" style="fill: none; width: 330px; height: 330px;"><path d="" style="stroke-width: 10; stroke-linecap: round; stroke-linejoin: round; stroke: rgb(204, 204, 204); fill: none;"/><path d="" style="stroke-width: 10; stroke-linecap: round; stroke-linejoin: round; stroke: rgb(153, 153, 153); fill: none;"/><path d="M165,285 L165,285 L165,225 M120,180 A45,45 0 0,0 165,225 M90,150 A30,30 0 0,1 120,180 M150,195 L150,165 M105,105 A45,60 0 0,1 150,165 M150,45 A45,60 0 0,1 105,105 M60,120 A30,30 0 0,0 90,150 M30,90 A30,30 0 0,0 60,120 M90,30 A45,45 0 0,0 135,75 M150,45 L150,45 L165,30 M135,30 L135,30 L150,45 M105,105 L105,105 L105,105 M135,285 L135,285 L195,285 M135,285 L195,285 M60,180 A30,30 0 0,0 90,150 M210,180 A45,45 0 0,1 165,225 A45,45 0 0,1 210,180 M210,120 L210,120 L210,180 M240,90 A30,30 0 0,1 210,120 M180,90 A30,30 0 0,0 210,120 M210,60 A30,30 0 0,0 180,90 M240,90 L240,90 L240,90 L240,90 L240,90 L240,90 M255,135 A45,45 0 0,1 210,180 M240,90 L240,90 L270,90 M165,225 L165,225 L150,195 M165,225 L165,225 L165,225 L165,225 M300,120 A30,30 0 0,1 270,90 M285,75 L285,75 L270,90 " style="stroke-width: 14; stroke-linecap: round; stroke-linejoin: round; stroke: rgb(198, 12, 48); fill: none;"/></svg>